<svg width="889" height="194" viewBox="0 0 889 194" fill="none" xmlns="http://www.w3.org/2000/svg">
<g id="Logo">
<g id="CONTEXTO">
<path d="M139.694 141.024C130.392 141.024 122.456 139.147 115.886 135.392C109.4 131.552 104.451 126.176 101.038 119.264C97.7095 112.352 96.0455 104.288 96.0455 95.072C96.0455 85.6853 97.7522 77.4933 101.166 70.496C104.664 63.4987 109.656 58.08 116.142 54.24C122.627 50.3147 130.435 48.352 139.566 48.352C146.478 48.352 152.664 49.5467 158.126 51.936C163.587 54.24 167.982 57.696 171.31 62.304C174.723 66.8267 176.856 72.416 177.71 79.072H160.046C158.936 74.8907 156.675 71.6053 153.262 69.216C149.934 66.7413 145.496 65.504 139.95 65.504C133.806 65.504 128.899 66.912 125.229 69.728C121.646 72.4587 119.043 76.0427 117.422 80.48C115.8 84.832 114.99 89.44 114.99 94.304C114.99 99.3387 115.843 104.117 117.55 108.64C119.256 113.163 121.944 116.832 125.614 119.648C129.368 122.464 134.275 123.872 140.334 123.872C143.918 123.872 147.118 123.36 149.934 122.336C152.75 121.227 155.054 119.648 156.846 117.6C158.723 115.552 160.003 113.12 160.686 110.304H178.99C178.222 116.875 176.003 122.464 172.334 127.072C168.664 131.68 164.014 135.179 158.382 137.568C152.75 139.872 146.52 141.024 139.694 141.024ZM292.788 140V49.376H311.476L353.332 110.688V49.376H371.636V140H353.46L311.092 79.328V140H292.788ZM409.988 140V66.4H382.34V49.376H456.196V66.4H428.42V140H409.988ZM466.913 140V49.376H532.193V66.4H485.217V86.88H525.537V103.264H485.217V123.104H532.193V140H466.913ZM537.581 140L568.301 94.688L538.477 49.376H560.621L579.949 81.12L599.021 49.376H620.781L590.957 94.56L621.677 140H599.533L579.309 108.256L558.445 140H537.581ZM651.238 140V66.4H623.59V49.376H697.446V66.4H669.67V140H651.238ZM747.843 141.024C738.541 141.024 730.52 139.061 723.779 135.136C717.123 131.211 712.003 125.792 708.419 118.88C704.92 111.883 703.171 103.861 703.171 94.816C703.171 85.6 704.963 77.4933 708.547 70.496C712.216 63.4987 717.421 58.08 724.163 54.24C730.904 50.3147 738.925 48.352 748.227 48.352C757.443 48.352 765.379 50.272 772.035 54.112C778.691 57.952 783.811 63.328 787.395 70.24C791.064 77.152 792.899 85.216 792.899 94.432C792.899 103.477 791.064 111.541 787.395 118.624C783.811 125.621 778.648 131.125 771.907 135.136C765.251 139.061 757.229 141.024 747.843 141.024ZM748.099 123.872C754.243 123.872 759.235 122.464 763.075 119.648C766.915 116.832 769.688 113.205 771.395 108.768C773.187 104.331 774.083 99.68 774.083 94.816C774.083 91.232 773.571 87.6907 772.547 84.192C771.608 80.6933 770.115 77.536 768.067 74.72C766.019 71.904 763.331 69.6853 760.003 68.064C756.675 66.3573 752.664 65.504 747.971 65.504C741.912 65.504 736.963 66.912 733.123 69.728C729.283 72.4587 726.424 76.0427 724.547 80.48C722.755 84.9173 721.859 89.6533 721.859 94.688C721.859 99.7227 722.755 104.459 724.547 108.896C726.424 113.333 729.283 116.96 733.123 119.776C737.048 122.507 742.04 123.872 748.099 123.872Z" fill="#0A2929"/>
</g>
<g id="GlobeIcon">
<g id="Lines">
<g id="Vertical">
<path id="Meridian" d="M225.009 58.7549C225.011 58.7548 225.021 58.7543 225.05 58.7666C225.086 58.7818 225.163 58.8224 225.278 58.9219C225.521 59.1331 225.847 59.5365 226.212 60.2295C226.944 61.6191 227.63 63.7727 228.208 66.6279C229.357 72.3025 229.981 80.2452 229.981 89.1094C229.981 98.3243 229.281 106.174 228.099 111.664C227.504 114.426 226.811 116.469 226.098 117.771C225.502 118.86 225.103 119.073 225.006 119.112C224.908 119.074 224.542 118.882 223.99 117.952C223.3 116.792 222.601 114.922 221.986 112.277C220.762 107.019 219.981 99.184 219.981 89.1094C219.981 80.2475 220.619 72.3062 221.781 66.6328C222.365 63.7782 223.057 61.6245 223.794 60.2344C224.162 59.5412 224.49 59.1363 224.735 58.9238C224.85 58.8236 224.929 58.7822 224.966 58.7666C224.998 58.7532 225.008 58.7549 225.009 58.7549Z" stroke="#0A2929" stroke-width="4"/>
<path id="Meridian_2" d="M225.333 58.7549C230.813 58.7549 235.214 61.8186 238.345 67.2324C241.502 72.693 243.253 80.4053 243.253 89.1094C243.253 98.1445 241.294 105.756 238.044 111.037C234.814 116.286 230.407 119.12 225.333 119.12C220.566 119.12 216.124 116.634 212.794 111.623C209.44 106.578 207.253 98.9942 207.253 89.1094C207.253 80.4124 209.041 72.7022 212.236 67.2412C215.406 61.824 219.849 58.755 225.333 58.7549Z" stroke="#0A2929" stroke-width="4"/>
<path id="Meridian_3" d="M224.382 58.7727C233.907 58.7728 241.194 62.2231 246.116 67.6799C251.063 73.1637 253.755 80.8255 253.755 89.4377C253.755 98.3648 250.749 105.929 245.642 111.248C240.542 116.56 233.233 119.755 224.382 119.755C216.086 119.755 208.699 116.958 203.397 111.845C198.11 106.746 194.755 99.2076 194.755 89.4377C194.755 80.837 197.503 73.1765 202.513 67.6887C207.5 62.2248 214.855 58.7727 224.382 58.7727Z" stroke="#0A2929" stroke-width="4"/>
</g>
<g id="Horizontal">
<path id="Meridian_4" d="M193.354 89.3831H254.124" stroke="#0A2929" stroke-width="4"/>
<path id="Meridian_5" d="M199 69H250" stroke="#0A2929" stroke-width="4"/>
<path id="Meridian_6" d="M199 109H250" stroke="#0A2929" stroke-width="4"/>
</g>
</g>
<path id="Globe" d="M255.755 89.4233C255.755 107.616 243.09 120.755 224.382 120.755C206.89 120.755 192.755 109.3 192.755 89.4233C192.755 71.9333 204.294 57.7549 224.382 57.7549C244.469 57.7549 255.755 71.9333 255.755 89.4233Z" stroke="#0A2929" stroke-width="4"/>
<path id="Stand" d="M260.92 48.3203C265.019 51.8336 268.59 55.9302 271.507 60.4902C275.977 67.4767 278.799 75.3706 279.756 83.5869C280.714 91.8035 279.783 100.126 277.034 107.937C274.285 115.746 269.79 122.839 263.89 128.693C257.991 134.547 250.836 139.013 242.961 141.767C239.138 143.104 235.191 144.019 231.191 144.509V146.255H247.752V159.255H200.877V146.255H218.191V144.596C209.954 143.699 202.018 141.004 194.962 136.699C191.239 134.428 187.81 131.739 184.741 128.693L193.897 119.465C196.247 121.796 198.875 123.858 201.733 125.602C207.192 128.932 213.348 131.015 219.746 131.689C226.143 132.364 232.612 131.614 238.67 129.495C244.729 127.376 250.218 123.946 254.734 119.465C259.25 114.984 262.677 109.568 264.771 103.62C266.864 97.673 267.572 91.3415 266.844 85.0928C266.116 78.8438 263.969 72.8297 260.557 67.4971C258.33 64.0158 255.6 60.8813 252.459 58.1895L260.92 48.3203Z" fill="#0A2929"/>
</g>
</g>
</svg>
