<svg width="889" height="194" viewBox="0 0 889 194" fill="none" xmlns="http://www.w3.org/2000/svg">
<g id="Logo">
<g id="CONTEXTO">
<path d="M135.575 141.024C126.188 141.024 118.167 139.147 111.511 135.392C104.855 131.637 99.7772 126.304 96.2785 119.392C92.8652 112.48 91.1585 104.373 91.1585 95.072C91.1585 85.6 92.9505 77.3653 96.5345 70.368C100.119 63.3707 105.196 57.952 111.767 54.112C118.423 50.1867 126.273 48.224 135.319 48.224C142.316 48.224 148.631 49.4613 154.263 51.936C159.895 54.4107 164.46 58.08 167.959 62.944C171.543 67.7227 173.719 73.7813 174.487 81.12H154.646C153.623 76.9387 151.532 73.696 148.375 71.392C145.303 69.0027 141.121 67.808 135.831 67.808C130.113 67.808 125.548 69.1307 122.135 71.776C118.721 74.336 116.247 77.6213 114.711 81.632C113.26 85.6427 112.535 89.824 112.535 94.176C112.535 98.6987 113.303 103.051 114.839 107.232C116.46 111.413 118.977 114.827 122.391 117.472C125.889 120.117 130.497 121.44 136.215 121.44C139.628 121.44 142.615 120.928 145.175 119.904C147.82 118.88 149.996 117.387 151.702 115.424C153.409 113.461 154.604 111.115 155.287 108.384H175.639C174.956 115.467 172.695 121.44 168.855 126.304C165.1 131.168 160.279 134.837 154.391 137.312C148.588 139.787 142.316 141.024 135.575 141.024ZM289.151 140V49.376H309.247L349.311 105.952V49.376H370.175V140H350.59L309.887 84.064V140H289.151ZM407.473 140V68.576H380.209V49.376H455.729V68.576H428.209V140H407.473ZM465.526 140V49.376H532.342V68.576H486.262V85.728H525.046V104.16H486.262V120.928H532.342V140H465.526ZM536.822 140L568.182 94.56L537.846 49.376H562.678L581.366 79.712L599.542 49.376H623.99L593.654 94.688L624.886 140H599.926L580.47 109.664L560.374 140H536.822ZM653.473 140V68.576H626.209V49.376H701.729V68.576H674.209V140H653.473ZM751.846 141.024C742.544 141.024 734.48 139.104 727.654 135.264C720.912 131.339 715.707 125.92 712.038 119.008C708.368 112.011 706.534 103.947 706.534 94.816C706.534 85.4293 708.411 77.28 712.166 70.368C716.006 63.3707 721.339 57.952 728.166 54.112C734.992 50.1867 743.056 48.224 752.358 48.224C761.488 48.224 769.424 50.144 776.166 53.984C782.992 57.824 788.283 63.2 792.038 70.112C795.878 76.9387 797.798 85.0027 797.798 94.304C797.798 103.435 795.92 111.541 792.166 118.624C788.411 125.621 783.078 131.125 776.166 135.136C769.339 139.061 761.232 141.024 751.846 141.024ZM752.23 121.44C758.032 121.44 762.726 120.117 766.31 117.472C769.894 114.827 772.496 111.456 774.118 107.36C775.739 103.264 776.55 99.0827 776.55 94.816C776.55 91.6587 776.08 88.5013 775.142 85.344C774.288 82.1867 772.88 79.2853 770.918 76.64C769.04 73.9947 766.566 71.8613 763.494 70.24C760.422 68.6187 756.624 67.808 752.102 67.808C746.384 67.808 741.734 69.1307 738.15 71.776C734.566 74.336 731.92 77.664 730.214 81.76C728.592 85.856 727.782 90.1653 727.782 94.688C727.782 99.2107 728.635 103.52 730.342 107.616C732.048 111.712 734.694 115.04 738.278 117.6C741.947 120.16 746.598 121.44 752.23 121.44Z" fill="#1E1E1E"/>
</g>
<g id="GlobeIcon">
<path id="Globe" d="M227.836 63.2688C236.772 63.2688 243.142 66.4299 247.338 71.0442C251.625 75.7595 254.183 82.6029 254.183 90.7444C254.183 99.0889 251.37 105.796 246.941 110.372C242.538 114.923 236.081 117.845 227.836 117.845C220.049 117.845 213.462 115.252 208.876 110.864C204.351 106.534 201.213 99.9258 201.213 90.7444C201.213 82.6488 203.812 75.8098 208.165 71.0784C212.436 66.4363 218.893 63.2689 227.836 63.2688Z" stroke="#1E1E1E" stroke-width="15.8082"/>
<path id="Stand" d="M250.143 165.646H204.977V154.354H222.29V145.069C222.098 145.051 221.906 145.034 221.715 145.014C213.536 144.151 205.653 141.487 198.651 137.216C191.649 132.944 185.705 127.171 181.263 120.319L190.737 114.177C194.252 119.598 198.965 124.18 204.532 127.576C210.1 130.973 216.377 133.096 222.899 133.784C229.422 134.472 236.018 133.706 242.196 131.546C248.374 129.386 253.972 125.887 258.579 121.316C263.186 116.745 266.685 111.218 268.821 105.148C270.958 99.0788 271.68 92.6164 270.937 86.2383C270.193 79.86 268.002 73.7226 264.521 68.2812C261.039 62.8397 256.354 58.2307 250.808 54.8018L253.777 50L256.746 45.1982C263.722 49.5113 269.632 55.3188 274.032 62.1963C278.433 69.0742 281.21 76.8444 282.152 84.9316C283.095 93.0189 282.178 101.211 279.472 108.898C276.766 116.586 272.341 123.568 266.532 129.332C260.724 135.095 253.679 139.493 245.924 142.205C241.92 143.605 237.777 144.537 233.581 144.993V154.354H250.143V165.646Z" fill="#1E1E1E"/>
</g>
</g>
</svg>
