<svg width="22" height="28" viewBox="0 0 22 28" fill="none" xmlns="http://www.w3.org/2000/svg">
<g id="User">
<circle id="Head" cx="11" cy="6.69995" r="6" fill="black" stroke="black" stroke-width="1.4"/>
<path id="Body" d="M6.20508 16.3693C6.26849 16.35 6.34749 16.3427 6.5332 16.4025C6.76291 16.4764 6.97503 16.5853 7.39453 16.7579C8.1824 17.0822 9.27915 17.4352 11.0146 17.3995C12.7336 17.3642 13.7722 17.0284 14.5283 16.7325C15.3318 16.4182 15.5244 16.3133 15.8535 16.3839C17.3096 16.6964 18.6371 17.2648 19.6133 18.4484C20.5911 19.6341 21.2998 21.54 21.2998 24.7003C21.2998 25.4616 21.2994 25.9932 21.2705 26.3829C21.2426 26.7592 21.1915 26.8899 21.1709 26.9279C21.1552 26.9347 21.1175 26.9503 21.041 26.963C20.8307 26.998 20.5252 27.0001 20 27.0001H2C1.47481 27.0001 1.16928 26.998 0.958984 26.963C0.881075 26.95 0.843255 26.9345 0.828125 26.9279C0.807378 26.8894 0.757284 26.7578 0.729492 26.3829C0.700624 25.9932 0.700195 25.4616 0.700195 24.7003C0.700195 22.0128 1.31869 20.1857 2.27539 18.9181C3.23253 17.65 4.58702 16.8639 6.20508 16.3693Z" fill="black" stroke="black" stroke-width="1.4"/>
</g>
</svg>
